<?xml version="1.0" encoding="UTF-8"?>
<svg version="1.1" xmlns="http://www.w3.org/2000/svg" width="48" height="48">
<path d="M0 0 C15.84 0 31.68 0 48 0 C48 15.84 48 31.68 48 48 C32.16 48 16.32 48 0 48 C0 32.16 0 16.32 0 0 Z " fill="#030303" transform="translate(0,0)"/>
<path d="M0 0 C13.63414634 0 13.63414634 0 19.875 5.5625 C22.55938214 9.03487819 22.59296997 12.3265406 22.35546875 16.6015625 C21.65331223 21.33919002 19.97975704 24.09372474 16.5 27.3125 C10.71315358 31.21862134 8.12871313 30 0 30 C0 20.1 0 10.2 0 0 Z " fill="#C0C0C0" transform="translate(13,9)"/>
<path d="M0 0 C9 0 9 0 11.5 1.875 C14.52081228 6.15448406 14.5148742 9.86901229 14 15 C12.61019502 17.96912882 11.30342972 19.69657028 9 22 C6.03 22 3.06 22 0 22 C0 14.74 0 7.48 0 0 Z " fill="#070707" transform="translate(17,13)"/>
</svg>
